

<svg
        xmlns="http://www.w3.org/2000/svg"
        viewBox="0 0 24 24"
        fill="white"
        className="w-6 h-6 "
      >
        <path d="M23.643 4.937c-.835.37-1.732.622-2.675.733a4.658 4.658 0 0 0 2.048-2.577 9.293 9.293 0 0 1-2.953 1.13 4.647 4.647 0 0 0-7.907 4.24 13.187 13.187 0 0 1-9.566-4.846 4.647 4.647 0 0 0 1.44 6.194 4.641 4.641 0 0 1-2.104-.58v.06a4.651 4.651 0 0 0 3.727 4.556 4.656 4.656 0 0 1-2.095.08 4.65 4.65 0 0 0 4.336 3.222A9.319 9.319 0 0 1 .671 19.64a13.13 13.13 0 0 0 7.112 2.084c8.518 0 13.172-7.061 13.172-13.18 0-.2-.004-.399-.013-.597a9.411 9.411 0 0 0 2.31-2.403z"></path>
  </svg>